PathFileType   4   (X/Y/Z)
DataRate  CameraRate  NumFrames  NumMarkers  Units  OrigDataRate  OrigDataStartFrame  OrigNumFrames  
  120.0      120.0        4         37         mm      120.0          38        151
Frame#      Time                    midhip                           hip_r                           hip_l                          knee_r                          knee_l                         ankle_r                         ankle_l                         midasis                          asis_r                          asis_l                          psis_r                          psis_l                    epicondLat_r                    epicondLat_l                    epicondMed_r                    epicondMed_l                  malleolusLat_r                  malleolusLat_l                 malleolusMedv_r                 malleolusMedv_l                    sternalnotch                  xyphoidprocess                            neck                           toe_r                           toe_l                     thighwand_r                     thighwand_l                     upperleg1_r                     upperleg1_l                     upperleg2_r                     upperleg2_l                     shankwand_r                     shankwand_l                     lowerleg1_r                     lowerleg1_l                   subclavicle_r                   subclavicle_l            
              X1          Y1          Z1          X2          Y2          Z2          X3          Y3          Z3          X4          Y4          Z4          X5          Y5          Z5          X6          Y6          Z6          X7          Y7          Z7          X8          Y8          Z8          X9          Y9          Z9          X10          Y10          Z10          X11          Y11          Z11          X12          Y12          Z12          X13          Y13          Z13          X14          Y14          Z14          X15          Y15          Z15          X16          Y16          Z16          X17          Y17          Z17          X18          Y18          Z18          X19          Y19          Z19          X20          Y20          Z20          X21          Y21          Z21          X22          Y22          Z22          X23          Y23          Z23          X24          Y24          Z24          X25          Y25          Z25          X26          Y26          Z26          X27          Y27          Z27          X28          Y28          Z28          X29          Y29          Z29          X30          Y30          Z30          X31          Y31          Z31          X32          Y32          Z32          X33          Y33          Z33          X34          Y34          Z34          X35          Y35          Z35          X36          Y36          Z36          X37          Y37          Z37          

	38	0.49167	-1914.134	766.940	242.115	-1929.372	765.691	297.470	-1898.896	768.189	186.760	-1852.399	419.572	326.835	-1974.640	426.131	200.477	-1919.861	81.699	322.295	-2051.801	69.144	210.085	-1882.535	840.365	251.808	-1896.946	844.442	360.919	-1868.125	836.289	142.698	-2064.166	866.580	262.247	-2054.327	862.586	212.863	-1834.622	428.759	386.763	-1958.907	409.754	141.344	-1827.830	422.602	263.313	-1966.240	417.540	257.969	-1935.029	84.911	356.440	-2057.777	69.383	174.078	-1910.435	75.529	290.449	-2056.858	71.347	243.427	-1889.828	1192.406	234.931	-1877.734	1090.973	232.225	-2000.553	1260.486	221.099	-1845.830	66.788	356.113	-1965.390	45.152	207.548	-1758.843	601.411	361.903	-1833.586	551.392	128.276	-1826.538	617.354	390.553	-1856.506	598.930	193.191	-1817.137	559.499	386.575	-1871.133	544.535	201.258	-1787.302	176.602	380.078	-2032.585	164.388	80.266	-1858.958	175.854	342.304	-2035.847	159.615	161.231	-1898.112	1191.358	291.998	-1877.181	1194.002	185.004
	39	0.50000	-1909.691	766.587	242.110	-1924.783	765.457	297.508	-1894.598	767.717	186.713	-1845.279	419.929	327.066	-1972.983	426.566	200.535	-1902.305	79.804	322.662	-2051.763	69.356	210.329	-1878.015	840.003	251.604	-1892.101	844.297	360.652	-1863.929	835.708	142.557	-2059.583	866.341	262.943	-2049.756	862.400	213.359	-1827.083	429.297	386.959	-1957.030	409.432	141.461	-1821.038	423.194	263.541	-1963.233	417.226	258.276	-1917.434	82.562	356.864	-2057.753	69.620	174.325	-1892.801	74.377	290.664	-2056.437	71.602	243.662	-1884.655	1191.857	234.770	-1872.817	1090.389	232.211	-1995.340	1260.176	221.594	-1827.821	65.885	356.099	-1965.295	45.229	207.649	-1752.938	602.480	361.822	-1830.891	550.446	128.217	-1820.943	617.842	390.839	-1852.576	597.904	193.254	-1811.086	560.206	386.816	-1867.570	543.705	201.197	-1772.530	178.669	379.886	-2032.029	164.528	80.628	-1843.917	176.228	342.571	-2034.925	159.709	161.366	-1892.704	1190.938	291.946	-1872.210	1193.327	184.715
	40	0.50833	-1905.287	766.157	242.142	-1920.223	765.142	297.584	-1890.350	767.172	186.700	-1838.506	420.187	327.393	-1971.323	426.711	200.607	-1884.842	78.202	323.024	-2051.683	69.579	210.551	-1873.497	839.583	251.435	-1887.250	844.061	360.447	-1859.745	835.106	142.422	-2054.980	866.077	263.633	-2045.165	862.196	213.872	-1819.690	429.796	387.223	-1955.160	409.138	141.564	-1814.911	422.983	265.346	-1961.043	417.371	258.583	-1899.959	80.513	357.264	-2057.700	69.872	174.552	-1874.930	73.168	291.031	-2056.152	71.837	243.887	-1879.592	1191.388	234.852	-1867.967	1089.890	232.568	-1990.172	1259.845	222.134	-1809.966	65.083	356.101	-1965.175	45.324	207.713	-1747.085	603.453	361.746	-1828.157	549.470	128.111	-1815.089	618.531	391.204	-1848.967	597.110	192.916	-1804.914	560.993	387.536	-1864.510	542.778	201.004	-1758.047	180.884	379.837	-2031.486	164.697	81.014	-1828.729	176.713	342.699	-2034.207	159.724	161.502	-1887.295	1190.680	292.021	-1867.451	1192.664	184.777
	41	0.51667	-1900.886	765.665	242.219	-1915.650	764.750	297.708	-1886.122	766.581	186.729	-1831.699	420.469	327.743	-1969.822	427.041	200.689	-1867.525	76.884	323.383	-2051.554	69.828	210.760	-1868.972	839.112	251.315	-1882.383	843.729	360.320	-1855.560	834.495	142.309	-2050.351	865.798	264.312	-2040.554	861.971	214.394	-1812.445	430.248	387.529	-1953.293	408.884	141.656	-1808.710	422.992	266.694	-1959.379	417.815	258.976	-1882.662	78.758	357.641	-2057.607	70.153	174.767	-1857.447	72.184	291.387	-2055.699	72.052	244.091	-1874.504	1190.928	235.036	-1863.069	1089.403	233.010	-1985.164	1259.645	222.455	-1792.313	64.407	356.149	-1965.041	45.431	207.768	-1741.313	604.315	361.677	-1825.406	548.483	127.962	-1809.295	619.052	391.560	-1845.511	596.412	192.741	-1798.810	561.800	388.125	-1861.709	541.945	200.990	-1743.876	183.229	379.945	-2030.941	164.893	81.393	-1814.111	176.983	343.088	-2033.315	159.868	161.702	-1881.994	1190.403	292.025	-1862.553	1192.033	185.125
